<?xml version="1.0" standalone="no"?>
<!DOCTYPE svg PUBLIC "-//W3C//DTD SVG 20010904//EN"
 "http://www.w3.org/TR/2001/REC-SVG-20010904/DTD/svg10.dtd">
<svg version="1.0" xmlns="http://www.w3.org/2000/svg"
 width="96.000000pt" height="96.000000pt" viewBox="0 0 96.000000 96.000000"
 preserveAspectRatio="xMidYMid meet">

<g transform="translate(0.000000,96.000000) scale(0.100000,-0.100000)"
fill="#000000" stroke="none">
<path d="M425 855 c-16 -15 -25 -36 -25 -55 0 -19 9 -40 25 -55 49 -50 135
-15 135 55 0 41 -39 80 -80 80 -19 0 -40 -9 -55 -25z"/>
<path d="M345 655 c-24 -24 -25 -28 -25 -180 0 -148 1 -155 20 -155 19 0 20
-7 20 -120 l0 -120 40 0 40 0 0 120 0 120 40 0 40 0 0 -120 0 -120 40 0 40 0
0 120 c0 113 1 120 20 120 19 0 20 7 20 155 0 152 -1 156 -25 180 -23 24 -31
25 -135 25 -104 0 -112 -1 -135 -25z"/>
</g>
</svg>
