<?xml version="1.0" standalone="no"?>
<!DOCTYPE svg PUBLIC "-//W3C//DTD SVG 20010904//EN"
 "http://www.w3.org/TR/2001/REC-SVG-20010904/DTD/svg10.dtd">
<svg version="1.0" xmlns="http://www.w3.org/2000/svg"
 width="96.000000pt" height="96.000000pt" viewBox="0 0 96.000000 96.000000"
 preserveAspectRatio="xMidYMid meet">

<g transform="translate(0.000000,96.000000) scale(0.100000,-0.100000)"
fill="#000000" stroke="none">
<path d="M320 800 c0 -33 3 -40 20 -40 19 0 20 -7 20 -100 l0 -100 -120 -167
c-130 -182 -139 -205 -95 -248 l24 -25 311 0 311 0 24 25 c44 43 35 66 -95
248 l-120 167 0 100 c0 93 1 100 20 100 17 0 20 7 20 40 l0 40 -160 0 -160 0
0 -40z m200 -120 l0 -80 -40 0 -40 0 0 80 0 80 40 0 40 0 0 -80z m127 -322
l113 -158 -280 0 -280 0 91 128 c153 213 133 193 192 190 l51 -3 113 -157z"/>
<path d="M490 425 c-15 -18 -10 -45 13 -59 34 -22 73 27 47 59 -16 19 -44 19
-60 0z"/>
<path d="M380 340 c-11 -11 -20 -29 -20 -40 0 -11 9 -29 20 -40 11 -11 29 -20
40 -20 26 0 60 34 60 60 0 11 -9 29 -20 40 -11 11 -29 20 -40 20 -11 0 -29 -9
-40 -20z"/>
</g>
</svg>
