<?xml version="1.0" standalone="no"?>
<!DOCTYPE svg PUBLIC "-//W3C//DTD SVG 20010904//EN"
 "http://www.w3.org/TR/2001/REC-SVG-20010904/DTD/svg10.dtd">
<svg version="1.0" xmlns="http://www.w3.org/2000/svg"
 width="96.000000pt" height="96.000000pt" viewBox="0 0 96.000000 96.000000"
 preserveAspectRatio="xMidYMid meet">

<g transform="translate(0.000000,96.000000) scale(0.100000,-0.100000)"
fill="#000000" stroke="none">
<path d="M193 813 c-11 -16 -31 -49 -46 -75 l-27 -47 0 -261 0 -261 25 -24 24
-25 311 0 311 0 24 25 25 24 0 263 0 263 -43 70 -42 70 -272 3 -271 2 -19 -27z
m537 -93 l20 -40 -270 0 -270 0 20 40 20 40 230 0 230 0 20 -40z m30 -320 l0
-200 -280 0 -280 0 0 200 0 200 280 0 280 0 0 -200z"/>
<path d="M360 480 l0 -40 120 0 120 0 0 40 0 40 -120 0 -120 0 0 -40z"/>
</g>
</svg>
