<?xml version="1.0" standalone="no"?>
<!DOCTYPE svg PUBLIC "-//W3C//DTD SVG 20010904//EN"
 "http://www.w3.org/TR/2001/REC-SVG-20010904/DTD/svg10.dtd">
<svg version="1.0" xmlns="http://www.w3.org/2000/svg"
 width="96.000000pt" height="96.000000pt" viewBox="0 0 96.000000 96.000000"
 preserveAspectRatio="xMidYMid meet">

<g transform="translate(0.000000,96.000000) scale(0.100000,-0.100000)"
fill="#000000" stroke="none">
<path d="M223 864 c-58 -21 -108 -80 -129 -151 -31 -106 -3 -281 71 -449 20
-44 21 -54 9 -75 -7 -13 -13 -43 -14 -66 l0 -43 360 0 360 0 0 40 c0 27 -13
67 -40 120 l-40 80 0 160 c0 153 1 160 20 160 17 0 20 7 20 40 0 33 -3 40 -20
40 -13 0 -20 7 -20 20 0 17 -7 20 -40 20 -33 0 -40 -3 -40 -20 0 -18 -7 -20
-55 -20 -54 0 -56 1 -118 64 -50 51 -74 67 -117 80 -66 20 -151 19 -207 0z
m212 -88 c22 -14 23 -19 13 -36 -10 -16 -24 -20 -70 -20 -51 0 -58 2 -58 20 0
17 -7 20 -40 20 -33 0 -40 -3 -40 -20 0 -13 -7 -20 -20 -20 -17 0 -20 -7 -20
-40 0 -33 3 -40 20 -40 19 0 20 -6 19 -167 l0 -168 -19 41 c-27 62 -60 202
-60 258 0 144 53 200 182 193 40 -3 78 -11 93 -21z m5 -186 c0 -39 4 -53 20
-62 11 -7 20 -21 20 -30 0 -14 8 -18 40 -18 32 0 40 4 40 18 0 9 9 23 20 30
16 9 20 23 20 62 l0 50 60 0 60 0 0 -160 0 -160 -200 0 -200 0 0 160 0 160 60
0 60 0 0 -50z"/>
</g>
</svg>
