<?xml version="1.0" standalone="no"?>
<!DOCTYPE svg PUBLIC "-//W3C//DTD SVG 20010904//EN"
 "http://www.w3.org/TR/2001/REC-SVG-20010904/DTD/svg10.dtd">
<svg version="1.0" xmlns="http://www.w3.org/2000/svg"
 width="96.000000pt" height="96.000000pt" viewBox="0 0 96.000000 96.000000"
 preserveAspectRatio="xMidYMid meet">

<g transform="translate(0.000000,96.000000) scale(0.100000,-0.100000)"
fill="#000000" stroke="none">
<path d="M275 871 c-11 -5 -31 -21 -45 -36 l-25 -27 -3 -244 -3 -244 -61 0
-60 0 3 -85 c4 -80 6 -86 37 -117 l32 -33 250 0 250 0 32 33 33 32 3 245 3
245 81 0 80 0 -3 85 c-4 80 -6 86 -37 117 l-32 33 -258 2 c-141 1 -266 -2
-277 -6z m365 -382 c-5 -283 -7 -313 -22 -323 -13 -8 -23 -8 -35 0 -14 9 -19
28 -21 83 l-3 71 -139 0 -140 0 0 228 c0 164 3 231 12 240 8 8 63 12 183 12
l170 0 -5 -311z m148 299 c7 -7 12 -25 12 -40 0 -26 -3 -28 -40 -28 -37 0 -40
2 -40 28 0 31 16 52 40 52 9 0 21 -5 28 -12z m-306 -588 l4 -40 -151 0 c-163
0 -175 4 -175 52 l0 28 159 0 159 0 4 -40z"/>
</g>
</svg>
