<?xml version="1.0" standalone="no"?>
<!DOCTYPE svg PUBLIC "-//W3C//DTD SVG 20010904//EN"
 "http://www.w3.org/TR/2001/REC-SVG-20010904/DTD/svg10.dtd">
<svg version="1.0" xmlns="http://www.w3.org/2000/svg"
 width="96.000000pt" height="96.000000pt" viewBox="0 0 96.000000 96.000000"
 preserveAspectRatio="xMidYMid meet">
<metadata>
Created by potrace 1.16, written by Peter Selinger 2001-2019
</metadata>
<g transform="translate(0.000000,96.000000) scale(0.100000,-0.100000)"
fill="#000000" stroke="none">
<path d="M500 850 c-67 -26 -83 -28 -151 -23 -75 6 -76 5 -114 -28 -21 -19
-56 -56 -77 -83 -39 -49 -39 -50 -37 -131 2 -69 0 -87 -19 -117 -20 -32 -21
-46 -18 -162 3 -149 2 -147 116 -192 91 -35 145 -36 221 -2 31 14 103 34 160
43 123 20 150 31 208 83 39 34 44 44 49 90 3 36 -1 67 -13 98 -15 39 -15 50
-4 70 10 20 10 34 1 72 -7 26 -11 69 -10 96 1 27 -2 51 -7 53 -6 2 -24 12 -42
23 -25 15 -32 27 -35 56 -7 81 -102 103 -228 54z m136 -117 c5 -27 7 -68 6
-93 -5 -137 -8 -170 -18 -180 -7 -7 -40 -22 -75 -34 -61 -22 -65 -26 -91 -79
-27 -56 -28 -57 -71 -57 -23 0 -52 -7 -65 -15 -12 -9 -37 -22 -56 -30 -31 -13
-36 -13 -59 5 -20 16 -25 31 -30 91 -5 62 -3 76 13 100 16 22 20 44 20 109 0
81 0 83 40 130 l40 48 92 4 c65 4 107 11 138 26 25 11 59 21 77 21 30 1 32 -1
39 -46z"/>
<path d="M451 658 c-52 -30 -53 -32 -46 -67 3 -20 7 -52 8 -71 2 -28 6 -36 25
-38 13 -2 31 3 40 11 9 8 32 22 50 31 28 14 32 22 32 56 0 21 -4 42 -10 45 -5
3 -10 17 -10 30 0 17 -20 39 -33 34 -1 0 -26 -14 -56 -31z"/>
</g>
</svg>
