<?xml version="1.0" standalone="no"?>
<!DOCTYPE svg PUBLIC "-//W3C//DTD SVG 20010904//EN"
 "http://www.w3.org/TR/2001/REC-SVG-20010904/DTD/svg10.dtd">
<svg version="1.0" xmlns="http://www.w3.org/2000/svg"
 width="96.000000pt" height="96.000000pt" viewBox="0 0 96.000000 96.000000"
 preserveAspectRatio="xMidYMid meet">

<g transform="translate(0.000000,96.000000) scale(0.100000,-0.100000)"
fill="#000000" stroke="none">
<path d="M704 860 c-124 -32 -250 -108 -349 -209 -47 -48 -52 -51 -101 -51
-50 0 -52 -2 -112 -64 -34 -35 -62 -73 -62 -84 0 -34 32 -52 95 -52 45 0 55
-3 47 -12 -12 -15 -48 -135 -57 -191 l-6 -38 38 6 c56 9 176 45 191 57 9 8 12
-3 12 -49 0 -45 4 -64 18 -76 29 -27 47 -21 116 40 l66 58 0 55 c0 53 2 58 46
100 106 104 182 230 215 358 25 98 24 118 -6 147 -29 30 -55 31 -151 5z m90
-87 c-40 -188 -143 -339 -308 -452 l-43 -30 -76 77 -77 77 41 55 c79 106 181
195 277 244 28 15 159 54 185 55 4 1 5 -11 1 -26z m-482 -460 c10 -9 18 -19
18 -24 0 -8 -61 -31 -67 -26 -5 5 18 67 25 67 3 0 14 -7 24 -17z"/>
<path d="M570 625 c-15 -18 -10 -45 13 -59 34 -22 73 27 47 59 -16 19 -44 19
-60 0z"/>
<path d="M450 505 c-15 -18 -10 -45 13 -59 34 -22 73 27 47 59 -16 19 -44 19
-60 0z"/>
</g>
</svg>
