<?xml version="1.0" standalone="no"?>
<!DOCTYPE svg PUBLIC "-//W3C//DTD SVG 20010904//EN"
 "http://www.w3.org/TR/2001/REC-SVG-20010904/DTD/svg10.dtd">
<svg version="1.0" xmlns="http://www.w3.org/2000/svg"
 width="96.000000pt" height="96.000000pt" viewBox="0 0 96.000000 96.000000"
 preserveAspectRatio="xMidYMid meet">

<g transform="translate(0.000000,96.000000) scale(0.100000,-0.100000)"
fill="#000000" stroke="none">
<path d="M705 860 c-136 -36 -214 -81 -328 -190 -72 -67 -76 -70 -124 -70 -48
0 -52 -2 -111 -64 -34 -35 -62 -73 -62 -84 0 -34 32 -52 92 -52 l56 0 -18 -38
c-10 -21 -26 -68 -36 -105 -17 -63 -17 -68 -1 -84 16 -16 21 -16 84 1 37 10
84 26 105 36 l38 18 0 -57 c0 -45 4 -62 20 -76 28 -25 56 -14 123 50 55 53 57
57 57 106 0 50 2 53 79 136 92 98 152 203 181 319 26 100 25 120 -5 149 -29
30 -55 31 -150 5z m-5 -160 c11 -11 20 -29 20 -40 0 -26 -34 -60 -60 -60 -11
0 -29 9 -40 20 -11 11 -20 29 -20 40 0 11 9 29 20 40 11 11 29 20 40 20 11 0
29 -9 40 -20z m-160 -160 c11 -11 20 -29 20 -40 0 -26 -34 -60 -60 -60 -11 0
-29 9 -40 20 -11 11 -20 29 -20 40 0 11 9 29 20 40 11 11 29 20 40 20 11 0 29
-9 40 -20z m-190 -244 c-11 -15 -80 -40 -87 -32 -6 6 14 63 30 84 8 10 16 7
38 -14 19 -18 25 -31 19 -38z"/>
</g>
</svg>
