<?xml version="1.0" standalone="no"?>
<!DOCTYPE svg PUBLIC "-//W3C//DTD SVG 20010904//EN"
 "http://www.w3.org/TR/2001/REC-SVG-20010904/DTD/svg10.dtd">
<svg version="1.0" xmlns="http://www.w3.org/2000/svg"
 width="90.000000pt" height="90.000000pt" viewBox="0 0 90.000000 90.000000"
 preserveAspectRatio="xMidYMid meet">
<metadata>
Created by potrace 1.16, written by Peter Selinger 2001-2019
</metadata>
<g transform="translate(0.000000,90.000000) scale(0.100000,-0.100000)"
fill="#000000" stroke="none">
<path d="M213 702 c-193 -97 -213 -109 -213 -132 0 -23 20 -35 215 -133 118
-59 224 -107 235 -107 11 0 117 48 235 107 195 98 215 110 215 133 0 23 -20
35 -215 133 -118 59 -225 107 -238 106 -12 0 -118 -48 -234 -107z"/>
<path d="M833 458 c-22 -11 -23 -16 -23 -143 0 -106 -3 -135 -15 -145 -23 -19
-18 -78 10 -127 14 -23 30 -43 35 -43 5 0 21 20 35 43 28 49 33 108 10 127
-12 10 -15 41 -15 156 0 79 -3 144 -7 143 -5 0 -18 -5 -30 -11z"/>
<path d="M180 314 l0 -87 40 -38 c51 -49 118 -69 230 -69 112 0 179 20 230 69
l40 38 0 87 0 86 -120 -60 c-67 -34 -133 -60 -150 -60 -17 0 -83 26 -150 60
l-120 60 0 -86z"/>
</g>
</svg>
